<?xml version="1.0" standalone="no"?><!DOCTYPE svg PUBLIC "-//W3C//DTD SVG 1.1//EN" "http://www.w3.org/Graphics/SVG/1.1/DTD/svg11.dtd"><svg t="1637948035949" class="icon" viewBox="0 0 1024 1024" version="1.1" xmlns="http://www.w3.org/2000/svg" p-id="1830" data-spm-anchor-id="a313x.7781069.0.i1" xmlns:xlink="http://www.w3.org/1999/xlink" width="200" height="200"><defs><style type="text/css"></style></defs><path d="M853.333333 0H170.666667a171.093333 171.093333 0 0 0-170.666667 170.666667v682.666666c0 93.866667 76.8 170.666667 170.666667 170.666667h682.666666c93.866667 0 170.666667-76.8 170.666667-170.666667V170.666667c0-93.866667-76.8-170.666667-170.666667-170.666667z m-93.312 719.146667c-8.533333 20.565333-22.058667 38.698667-39.381333 52.650666-17.92 14.506667-40.618667 26.453333-68.565333 34.986667-27.904 8.661333-61.098667 13.013333-99.541334 13.013333H278.101333v-597.333333h290.218667c53.674667 0 96.682667 12.074667 128.853333 36.693333 32.426667 24.746667 48.554667 61.610667 48.554667 111.36 0 30.08-7.338667 55.893333-22.101333 77.226667-14.677333 21.205333-35.84 37.802667-63.146667 49.322667v1.962666c36.437333 7.68 64.64 24.96 83.2 51.84s28.074667 60.842667 28.074667 101.845334c0 22.954667-4.437333 44.8-12.8 65.194666l1.066666 1.152z m-118.442666-147.2c-17.493333-16-42.069333-23.808-73.813334-23.808H383.36v186.368h184.917333c31.573333 0 56.32-8.192 73.813334-24.746667 17.493333-16.426667 26.453333-39.850667 26.453333-69.973333-0.298667-29.44-8.96-52.224-26.453333-67.84h-0.725334z m-25.6-120.448c16.896-14.336 25.173333-34.858667 25.173333-61.610667 0-30.037333-7.466667-51.370667-22.613333-63.573333-15.018667-12.16-36.693333-18.474667-65.194667-18.474667h-170.666667v164.821333h170.666667c24.874667 0 46.08-7.253333 62.464-21.162666z" fill="#ffffff" p-id="1831" data-spm-anchor-id="a313x.7781069.0.i0" class=""></path></svg>