<?xml version="1.0" standalone="no"?><!DOCTYPE svg PUBLIC "-//W3C//DTD SVG 1.1//EN" "http://www.w3.org/Graphics/SVG/1.1/DTD/svg11.dtd"><svg t="1637948844920" class="icon" viewBox="0 0 1024 1024" version="1.1" xmlns="http://www.w3.org/2000/svg" p-id="2572" xmlns:xlink="http://www.w3.org/1999/xlink" width="200" height="200"><defs><style type="text/css"></style></defs><path d="M128 128h768v768H128V128z m705.066667 584.832c-5.589333-35.029333-28.416-64.469333-96.085334-91.946667-23.552-11.050667-49.706667-18.688-57.557333-36.437333-2.901333-10.581333-3.328-16.298667-1.450667-22.570667 4.821333-20.650667 29.312-26.837333 48.512-21.12 12.501333 3.84 24.021333 13.44 31.232 28.842667 33.066667-21.632 33.066667-21.632 56.149334-36.010667-8.661333-13.397333-12.970667-19.242667-18.730667-25.002666-20.181333-22.528-47.061333-34.048-90.709333-33.066667l-22.528 2.858667c-21.632 5.290667-42.282667 16.853333-54.741334 32.170666-36.48 41.301333-25.941333 113.28 18.218667 143.104 43.648 32.64 107.562667 39.808 115.712 70.528 7.68 37.461333-27.818667 49.450667-62.933333 45.141334-25.898667-5.802667-40.32-18.730667-56.149334-42.752l-58.538666 33.621333c6.698667 15.317333 14.378667 22.058667 25.898666 35.498667 55.68 56.149333 194.901333 53.290667 219.861334-32.170667 0.896-2.858667 7.68-22.528 2.389333-52.778667l1.450667 2.090667z m-287.445334-231.850667h-71.936c0 61.994667-0.298667 123.648-0.298666 185.770667 0 39.424 2.005333 75.605333-4.437334 86.741333-10.538667 22.058667-37.802667 19.242667-50.133333 15.317334-12.672-6.229333-19.114667-14.890667-26.581333-27.349334-2.005333-3.328-3.498667-6.229333-4.053334-6.229333l-58.368 36.010667c9.770667 20.181333 24.021333 37.504 42.410667 48.512 27.349333 16.341333 64.085333 21.632 102.570667 13.013333 25.088-7.253333 46.72-22.144 57.941333-45.184 16.384-29.738667 12.885333-66.261333 12.757333-107.050667 0.341333-65.749333 0-131.541333 0-197.76l0.128-1.792z" p-id="2573"></path></svg>